<svg width="24" height="25" viewBox="0 0 24 25" fill="none" xmlns="http://www.w3.org/2000/svg">
<path d="M12 3.5C14.755 3.5 17.455 3.732 20.083 4.178C20.616 4.268 21 4.734 21 5.274V6.318C21 6.61348 20.9418 6.90606 20.8287 7.17905C20.7157 7.45203 20.5499 7.70007 20.341 7.909L14.909 13.341C14.7001 13.5499 14.5343 13.798 14.4213 14.071C14.3082 14.3439 14.25 14.6365 14.25 14.932L14.25 17.859C14.2501 18.277 14.1337 18.6867 13.914 19.0423C13.6943 19.3978 13.3799 19.6851 13.006 19.872L9.75 21.5L9.75 14.932C9.75 14.6365 9.69181 14.3439 9.57874 14.071C9.46566 13.798 9.29993 13.5499 9.091 13.341L3.659 7.909C3.45007 7.70007 3.28434 7.45203 3.17126 7.17905C3.05819 6.90606 3 6.61348 3 6.318V5.274C3 4.734 3.384 4.268 3.917 4.178C6.58756 3.72576 9.29142 3.49896 12 3.5Z" stroke="#4D5154" stroke-width="1.5" stroke-linecap="round" stroke-linejoin="round"/>
</svg>
