<svg width="269" height="376" viewBox="0 0 269 376" fill="none" xmlns="http://www.w3.org/2000/svg">
<path d="M142.092 0L150.36 2.46262L146.314 37.6429L141.917 36.0598L142.092 0Z" fill="#B8BFCD"/>
<path d="M141.565 40.1055L145.61 41.6886L145.083 45.0307L141.037 43.6235L141.565 40.1055Z" fill="#B8BFCD"/>
<path d="M156.868 18.8213L165.135 21.108L161.266 43.6234L156.692 42.0403L156.868 18.8213Z" fill="#B8BFCD"/>
<path d="M156.34 45.9106L160.386 47.4938L159.858 50.66L155.813 49.2528L156.34 45.9106Z" fill="#B8BFCD"/>
<path d="M199.436 174.494H91.2567C91.2567 174.494 97.2374 172.559 86.8592 174.494C76.3051 176.429 76.3051 176.077 77.1846 169.393C78.0641 162.709 84.3966 155.849 89.3218 148.461C88.7941 141.425 91.0808 134.037 99.3482 127.177C99.3482 127.001 99.3482 126.825 99.3482 126.649C95.3025 86.3676 116.587 99.5602 134.353 92.876L132.066 91.2929L158.099 80.0352C158.099 80.0352 165.487 81.9701 172.347 85.8399C177.449 88.8302 182.198 92.7001 182.901 97.6253C183.781 103.254 182.901 110.642 181.67 117.502C180.615 123.659 179.383 129.288 179.032 132.982C179.032 133.685 178.856 134.213 178.856 134.741C180.087 140.545 188.178 149.164 187.123 154.793C189.938 157.784 193.456 166.755 193.983 170.624C194.687 174.494 199.436 174.494 199.436 174.494Z" fill="#DDE3EE"/>
<path opacity="0.1" d="M181.67 117.502C180.615 123.659 179.383 129.288 179.031 133.157C176.393 137.907 171.644 140.897 165.135 144.591C163.728 145.47 161.969 146.174 160.386 146.702C158.099 147.405 155.812 148.109 153.526 148.461C146.49 149.868 139.278 150.22 132.066 148.813C126.085 147.581 120.104 145.646 114.652 142.48C112.892 141.425 110.958 140.193 109.374 138.786C104.625 134.741 100.931 131.222 98.9963 127.001C97.2372 123.483 96.8855 119.437 97.765 113.984C99.8758 102.375 102.69 93.5795 102.69 93.5795C102.866 92.7 104.273 91.4687 104.801 90.7651C105.681 89.8856 106.208 88.8302 107.088 87.9507C108.495 86.1917 110.254 84.2568 111.661 82.4978C115.179 78.9797 119.049 76.1653 123.622 74.4063C131.01 71.7678 138.926 72.1196 146.49 73.175C151.943 73.8786 157.747 75.1099 162.673 77.9243C166.367 80.0351 169.357 82.6737 171.995 86.0158C172.523 86.5435 172.875 87.2471 173.403 87.7748C176.393 92.1723 178.504 97.0976 180.966 101.847C181.142 101.847 181.67 108.355 181.67 117.502Z" fill="#AAB2C5"/>
<path d="M33.9128 174.67H262.761" stroke="#D6DCE8" stroke-width="1.5905" stroke-miterlimit="10" stroke-linecap="round" stroke-linejoin="round"/>
<path d="M7 174.67H21.5998" stroke="#D6DCE8" stroke-width="1.5905" stroke-miterlimit="10" stroke-linecap="round" stroke-linejoin="round"/>
<path d="M166.015 130.695C164.607 131.575 162.848 132.278 161.265 132.806C159.155 133.509 156.692 134.213 154.405 134.565C147.369 135.972 140.157 136.324 132.945 134.741C126.965 133.509 120.984 131.575 115.531 128.408C113.596 127.353 111.837 126.122 110.254 124.714C101.283 117.151 96.5336 111.522 98.6444 99.9122C100.755 88.3027 103.394 79.6835 103.394 79.6835C103.57 78.804 104.977 77.5727 105.505 76.8691C106.384 75.9896 106.912 74.9342 107.791 74.0547C109.198 72.2957 110.782 70.3608 112.365 68.6018C115.883 65.0837 119.753 62.2693 124.326 60.5103C131.714 57.8718 139.629 58.2236 147.193 59.279C152.822 59.9826 158.451 61.2139 163.376 64.0283C167.774 66.4909 171.116 69.8331 173.93 73.8788C176.921 78.2763 179.031 83.2016 181.494 88.1268C181.494 88.1268 182.374 97.2737 182.022 109.059C182.022 120.845 176.217 125.066 166.015 130.695Z" fill="#EAEEF9"/>
<path d="M128.02 100.792C126.261 102.023 123.623 106.772 116.235 102.902C105.857 97.2735 108.495 83.2014 115.004 79.3315C126.613 72.4714 137.167 77.3966 137.695 88.1266C138.223 99.5602 131.714 98.5048 128.02 100.792Z" fill="#BFC8D6"/>
<path d="M186.595 167.986C185.188 169.745 185.54 172.383 187.475 173.791C188.53 174.494 189.586 175.198 190.113 176.957C191.345 180.475 202.602 188.742 208.407 186.983C214.388 185.224 220.896 180.827 219.313 173.615C217.906 166.403 211.573 162.885 208.407 162.709C205.241 162.357 194.159 161.126 190.465 163.94C189.058 165.172 187.651 166.755 186.595 167.986Z" fill="#EAEEF9"/>
<path d="M94.0712 167.986C95.4784 169.745 95.1266 172.383 93.1917 173.791C92.1363 174.494 91.0809 175.198 90.5532 176.957C89.3219 180.475 78.0642 188.742 72.2594 186.983C66.4547 185.224 59.7704 180.827 61.3535 173.615C62.7607 166.403 69.0932 162.885 72.2594 162.709C75.4257 162.533 86.5075 161.126 90.2014 163.94C91.7845 165.171 93.1917 166.755 94.0712 167.986Z" fill="#EAEEF9"/>
<path d="M122.04 98.5046C126.613 99.0323 130.659 95.6902 131.187 91.1168C131.714 86.5433 128.372 82.4976 123.799 81.9699C119.225 81.4422 115.179 84.7843 114.652 89.3577C114.124 93.9312 117.466 97.9769 122.04 98.5046Z" fill="white"/>
<path d="M130.131 91.9964C129.779 95.5144 126.613 98.153 123.095 97.8012C119.577 97.4494 116.938 94.2831 117.29 90.7651C117.818 91.2928 118.521 91.8205 119.225 91.9964C120.808 92.1723 122.215 91.1169 122.391 89.3579C122.567 87.7748 121.512 86.3676 119.929 86.1917C121.16 85.3122 122.743 84.9604 124.326 85.1363C128.02 85.3122 130.483 88.3025 130.131 91.9964Z" fill="#989FB0"/>
<path d="M162.145 102.726C166.718 103.254 170.764 99.9119 171.292 95.3384C171.819 90.765 168.477 86.7193 163.904 86.1916C159.33 85.6639 155.285 89.006 154.757 93.5794C154.229 98.3288 157.571 102.374 162.145 102.726Z" fill="white"/>
<path d="M155.461 94.635C155.109 98.153 157.748 101.319 161.266 101.671C164.784 102.023 167.95 99.3843 168.302 95.8663C167.774 96.394 166.895 96.7458 166.191 96.5699C164.608 96.394 163.377 94.9868 163.552 93.4037C163.728 91.8206 165.136 90.7652 166.719 90.7652C165.663 89.7098 164.256 89.0062 162.673 88.8303C159.155 88.4785 155.989 90.9411 155.461 94.635Z" fill="#989FB0"/>
<path d="M127.141 70.5364C124.151 71.0641 121.512 71.5918 119.401 72.999C117.29 74.4062 115.18 76.6929 114.124 79.3314C114.124 79.5073 113.948 79.5073 113.772 79.5073C113.596 79.5073 113.596 79.3314 113.596 79.3314C113.772 77.9242 114.476 76.3411 115.355 75.1098C116.059 73.7026 117.29 72.6472 118.698 71.7677C120.105 70.8882 121.336 70.1845 122.919 69.6568C124.502 69.4809 126.085 69.305 127.493 70.0086C127.317 70.0086 127.669 70.3604 127.141 70.5364C127.317 70.5364 127.317 70.5364 127.141 70.5364Z" fill="#989FB0"/>
<path d="M163.201 76.8695C165.839 77.9249 168.126 78.9803 170.061 80.7393C171.82 82.4983 173.227 85.1369 173.755 87.7754C173.755 87.9513 173.931 87.9513 174.106 87.9513C174.282 87.9513 174.282 87.7754 174.282 87.7754C174.458 86.3682 173.931 84.7851 173.579 83.5537C173.051 82.1465 172.347 80.7393 171.116 79.6839C170.061 78.6285 169.005 77.5731 167.598 76.8695C166.191 76.3418 164.608 75.99 163.201 76.1659C163.025 76.3418 163.025 76.5177 163.201 76.8695C163.201 76.8695 162.849 76.8695 163.201 76.8695Z" fill="#989FB0"/>
<path d="M178.856 69.1297C175.689 64.9081 171.116 66.1394 172.875 71.0646C175.689 78.8043 180.966 82.4982 182.374 111.346C182.726 116.447 199.788 105.541 199.788 87.4234C199.788 84.0813 195.742 82.85 195.742 82.85C193.28 82.1464 183.957 75.638 178.856 69.1297Z" fill="#989FB0"/>
<path d="M33.9126 82.8498C33.9126 82.8498 15.267 77.3969 18.2574 83.5535C21.2477 89.71 29.5151 102.023 42.7077 105.013C55.9003 107.828 47.9847 96.2184 48.1606 96.3943L33.9126 82.8498Z" fill="#EEEEEE"/>
<g filter="url(#filter0_d_480_6108)">
<path d="M14.2119 70.8887C18.9612 76.1657 38.8381 83.9054 55.021 83.2018C57.3077 100.088 59.0668 105.189 62.0571 107.3C53.9656 109.411 32.1538 107.652 29.1635 91.2933C13.8601 91.9969 14.2119 70.8887 14.2119 70.8887Z" fill="url(#paint0_linear_480_6108)"/>
</g>
<g filter="url(#filter1_d_480_6108)">
<path d="M224.414 133.333C229.691 129.815 239.19 113.456 240.597 99.384C255.549 99.384 260.122 98.6804 262.585 96.2178C263.289 103.606 261.881 121.724 249.216 132.453C235.144 133.861 224.414 133.333 224.414 133.333Z" fill="url(#paint1_linear_480_6108)"/>
</g>
<g filter="url(#filter2_d_480_6108)">
<path d="M184.836 190.853C160.386 194.898 155.988 195.602 146.666 194.371C137.343 193.139 124.326 191.556 119.929 200C117.994 188.918 113.596 178.715 105.505 170.976C106.032 170.272 106.384 169.217 106.384 168.161C106.384 166.051 105.153 164.292 103.218 163.588C103.57 162.884 103.746 162.181 103.746 161.477C103.746 158.839 101.635 156.552 98.8205 156.552C97.2373 156.552 95.8301 157.256 94.9506 158.487C95.1265 157.607 95.3024 156.904 95.3024 156.552C95.3024 153.913 93.1916 151.627 90.3772 151.627C88.97 151.627 87.5628 152.33 86.6833 153.386C85.9796 152.33 84.9242 151.627 83.517 151.627C81.4062 151.627 79.8231 153.21 79.8231 155.321C79.8231 155.672 79.8231 156.552 79.8231 157.607C67.3341 153.562 64.6956 153.386 64.6956 153.386C72.2593 138.434 108.143 116.622 134.001 120.668C150.536 123.131 169.181 127.704 178.68 145.822C178.152 145.646 177.624 145.47 177.097 145.47C176.921 145.47 176.569 145.47 176.217 145.646C175.338 144.415 173.93 143.711 172.347 143.711C169.885 143.711 167.95 145.47 167.598 147.757C167.422 147.757 166.718 147.757 166.191 147.757C163.552 147.757 161.441 149.868 161.441 152.506C161.441 154.441 162.673 156.2 164.432 156.904C163.552 157.783 163.025 158.839 163.025 160.246C163.025 162.884 165.135 164.995 167.774 164.995C169.533 164.995 170.94 164.116 171.82 162.884C172.699 164.116 174.106 164.995 175.865 164.995C178.504 164.995 180.615 162.884 180.615 160.246C180.615 160.07 180.615 160.07 180.615 159.894C181.846 159.366 182.901 158.311 183.253 157.08C185.54 165.875 186.419 176.956 184.836 190.853Z" fill="url(#paint2_linear_480_6108)"/>
</g>
<path d="M123.447 178.012C130.307 175.901 159.507 169.393 176.217 171.328L123.447 178.012Z" fill="white"/>
<path fill-rule="evenodd" clip-rule="evenodd" d="M146.32 174.282C136.107 175.926 127.147 178.07 123.783 179.105L123.11 176.919C126.606 175.843 135.676 173.678 145.956 172.023C156.218 170.372 167.827 169.205 176.349 170.191L176.086 172.464C167.896 171.516 156.55 172.635 146.32 174.282Z" fill="#D6DCE8"/>
<path d="M116.586 168.689C122.215 166.227 149.304 160.598 163.024 160.07L116.586 168.689Z" fill="white"/>
<path fill-rule="evenodd" clip-rule="evenodd" d="M124.564 167.487C121.012 168.371 118.352 169.165 117.045 169.737L116.128 167.641C117.635 166.982 120.472 166.148 124.011 165.267C127.58 164.379 131.943 163.424 136.553 162.531C145.759 160.747 156.03 159.194 162.98 158.927L163.068 161.213C156.298 161.473 146.165 162.998 136.989 164.777C132.409 165.664 128.086 166.611 124.564 167.487Z" fill="#D6DCE8"/>
<path d="M110.078 158.311C132.418 145.822 150.008 151.099 164.432 140.017L110.078 158.311Z" fill="white"/>
<path fill-rule="evenodd" clip-rule="evenodd" d="M140.427 149.762C131.439 151.388 121.624 153.166 110.636 159.309L109.52 157.312C120.848 150.979 130.981 149.146 139.965 147.52L140.02 147.511C149.05 145.877 156.776 144.456 163.735 139.11L165.129 140.924C157.691 146.638 149.443 148.13 140.525 149.744L140.427 149.762Z" fill="#D6DCE8"/>
<path d="M102.866 150.395C112.365 143.887 120.456 140.897 131.362 140.017L102.866 150.395Z" fill="white"/>
<path fill-rule="evenodd" clip-rule="evenodd" d="M131.454 141.157C120.762 142.019 112.86 144.934 103.512 151.338L102.219 149.451C111.87 142.839 120.15 139.773 131.27 138.876L131.454 141.157Z" fill="#D6DCE8"/>
<path d="M161.793 124.714C161.793 124.89 161.793 125.242 161.793 125.418V125.593C161.793 125.769 161.793 125.945 161.617 126.121C160.562 128.936 155.988 132.278 151.239 132.805C146.49 133.333 141.565 131.398 139.454 123.483C134.353 128.408 129.427 129.111 125.382 128.056C120.105 126.649 116.587 122.427 116.411 121.196C116.411 120.668 116.411 120.14 116.587 119.613C117.818 108.179 128.9 100.088 141.389 101.495C153.878 103.078 163.025 113.456 161.793 124.714Z" fill="#BFC8D6"/>
<path d="M141.389 103.254C140.333 103.078 139.102 103.078 138.047 103.254C136.639 103.606 134.529 103.958 134.177 105.717C134.001 108.003 138.926 110.642 140.333 110.818C141.74 110.994 147.193 109.586 147.545 107.3C147.721 105.013 145.786 104.134 144.027 103.606C143.148 103.43 142.092 103.078 141.389 103.254Z" fill="#989FB0"/>
<path fill-rule="evenodd" clip-rule="evenodd" d="M139.933 115.033C139.85 112.689 139.566 110.236 139.33 108.699L140.751 108.48C140.994 110.06 141.285 112.569 141.371 114.983C141.413 116.189 141.405 117.386 141.31 118.437C141.216 119.469 141.034 120.437 140.684 121.137L139.397 120.494C139.623 120.043 139.788 119.296 139.877 118.308C139.965 117.338 139.975 116.206 139.933 115.033Z" fill="#989FB0"/>
<path d="M112.013 68.2497L111.837 70.1846C110.958 71.0641 110.254 72.1196 109.375 73.175C104.801 79.3315 100.58 87.423 99.3482 97.6253C98.9964 96.394 95.3025 83.2014 94.5989 80.7387C94.423 80.211 94.2471 79.8592 94.2471 79.8592V76.1653L97.5892 68.7774L106.208 64.3799L112.013 68.2497Z" fill="#6F788D"/>
<path d="M119.753 62.7968C117.29 64.5558 114.476 67.0184 111.837 70.1847C110.958 71.0642 110.254 72.1196 109.374 73.175C109.023 68.2498 103.218 67.5462 103.218 67.5462C102.514 71.9437 98.6444 76.8689 94.4228 80.7388C90.9048 83.905 87.0349 86.1917 84.5723 86.3676C83.8687 86.3676 83.341 85.8399 83.6928 85.1363C85.4518 80.5629 84.9241 73.8786 85.4518 70.5365C86.1554 66.8425 96.7095 61.2137 102.162 59.1029C106.384 57.5198 117.466 59.8065 119.753 62.7968Z" fill="#989FB0"/>
<path d="M23.9722 235.697H20.271V233.753H23.9722C24.6167 233.753 25.1375 233.649 25.5347 233.441C25.9318 233.233 26.2215 232.946 26.4038 232.582C26.5926 232.21 26.687 231.787 26.687 231.312C26.687 230.863 26.5926 230.443 26.4038 230.052C26.2215 229.655 25.9318 229.336 25.5347 229.095C25.1375 228.854 24.6167 228.734 23.9722 228.734H21.0229V241H18.5718V226.781H23.9722C25.0724 226.781 26.0067 226.976 26.7749 227.367C27.5496 227.751 28.1388 228.285 28.5425 228.968C28.9461 229.645 29.1479 230.42 29.1479 231.292C29.1479 232.21 28.9461 232.998 28.5425 233.656C28.1388 234.313 27.5496 234.818 26.7749 235.169C26.0067 235.521 25.0724 235.697 23.9722 235.697ZM36.9507 238.88V233.841C36.9507 233.464 36.8823 233.138 36.7456 232.865C36.6089 232.591 36.4006 232.38 36.1206 232.23C35.8472 232.08 35.5021 232.005 35.0854 232.005C34.7013 232.005 34.3693 232.07 34.0894 232.201C33.8094 232.331 33.5913 232.507 33.4351 232.728C33.2788 232.949 33.2007 233.2 33.2007 233.48H30.8569C30.8569 233.063 30.9578 232.66 31.1597 232.269C31.3615 231.878 31.6545 231.53 32.0386 231.224C32.4227 230.918 32.8817 230.677 33.4155 230.501C33.9494 230.326 34.5483 230.238 35.2124 230.238C36.0067 230.238 36.7098 230.371 37.3218 230.638C37.9403 230.905 38.4253 231.309 38.7769 231.849C39.1349 232.383 39.314 233.054 39.314 233.861V238.558C39.314 239.04 39.3465 239.473 39.4116 239.857C39.4832 240.235 39.5841 240.563 39.7144 240.843V241H37.3022C37.1916 240.746 37.1037 240.423 37.0386 240.033C36.98 239.636 36.9507 239.251 36.9507 238.88ZM37.2925 234.574L37.312 236.029H35.6226C35.1864 236.029 34.8022 236.071 34.4702 236.156C34.1382 236.234 33.8615 236.351 33.6401 236.507C33.4188 236.664 33.2528 236.852 33.1421 237.074C33.0314 237.295 32.9761 237.546 32.9761 237.826C32.9761 238.106 33.0412 238.363 33.1714 238.597C33.3016 238.825 33.4904 239.004 33.7378 239.134C33.9917 239.264 34.2977 239.33 34.6558 239.33C35.1375 239.33 35.5575 239.232 35.9155 239.037C36.2801 238.835 36.5666 238.591 36.7749 238.304C36.9832 238.011 37.0939 237.735 37.1069 237.474L37.8687 238.519C37.7905 238.786 37.6571 239.072 37.4683 239.378C37.2795 239.684 37.0321 239.977 36.7261 240.257C36.4266 240.531 36.0653 240.755 35.6421 240.931C35.2254 241.107 34.7437 241.195 34.1968 241.195C33.5067 241.195 32.8914 241.058 32.3511 240.785C31.8107 240.505 31.3875 240.13 31.0815 239.662C30.7756 239.186 30.6226 238.649 30.6226 238.05C30.6226 237.49 30.7267 236.996 30.9351 236.566C31.1499 236.13 31.4624 235.765 31.8726 235.472C32.2892 235.179 32.797 234.958 33.396 234.808C33.995 234.652 34.6785 234.574 35.4468 234.574H37.2925ZM48.5425 230.433H50.6812V240.707C50.6812 241.657 50.4793 242.464 50.0757 243.128C49.672 243.792 49.1089 244.297 48.3862 244.642C47.6636 244.994 46.827 245.169 45.8765 245.169C45.4728 245.169 45.0236 245.111 44.5288 244.994C44.0405 244.876 43.5653 244.688 43.103 244.427C42.6473 244.173 42.2664 243.838 41.9604 243.421L43.064 242.035C43.4416 242.484 43.8582 242.813 44.314 243.021C44.7697 243.229 45.2482 243.333 45.7495 243.333C46.2899 243.333 46.7489 243.233 47.1265 243.031C47.5106 242.835 47.8068 242.546 48.0151 242.162C48.2235 241.778 48.3276 241.309 48.3276 240.755V232.826L48.5425 230.433ZM41.3647 235.833V235.628C41.3647 234.828 41.4624 234.098 41.6577 233.441C41.853 232.777 42.133 232.207 42.4976 231.732C42.8621 231.25 43.3049 230.882 43.8257 230.628C44.3465 230.368 44.9357 230.238 45.5933 230.238C46.2769 230.238 46.8595 230.361 47.3413 230.609C47.8296 230.856 48.2365 231.211 48.562 231.673C48.8875 232.129 49.1414 232.676 49.3237 233.314C49.5125 233.945 49.6525 234.649 49.7437 235.423V236.078C49.659 236.833 49.5158 237.523 49.314 238.148C49.1121 238.773 48.8452 239.313 48.5132 239.769C48.1812 240.225 47.771 240.576 47.2827 240.824C46.8009 241.071 46.2313 241.195 45.5737 241.195C44.9292 241.195 44.3465 241.061 43.8257 240.794C43.3114 240.528 42.8687 240.153 42.4976 239.671C42.133 239.19 41.853 238.623 41.6577 237.972C41.4624 237.315 41.3647 236.602 41.3647 235.833ZM43.7183 235.628V235.833C43.7183 236.315 43.7638 236.764 43.855 237.181C43.9526 237.598 44.0991 237.966 44.2944 238.285C44.4963 238.597 44.7502 238.845 45.0562 239.027C45.3687 239.203 45.7365 239.291 46.1597 239.291C46.7131 239.291 47.1655 239.173 47.5171 238.939C47.8752 238.705 48.1486 238.389 48.3374 237.992C48.5327 237.588 48.6694 237.139 48.7476 236.644V234.876C48.7085 234.492 48.6271 234.134 48.5034 233.802C48.3862 233.47 48.2267 233.181 48.0249 232.933C47.8231 232.679 47.5692 232.484 47.2632 232.347C46.9572 232.204 46.5959 232.132 46.1792 232.132C45.756 232.132 45.3882 232.223 45.0757 232.406C44.7632 232.588 44.506 232.839 44.3042 233.158C44.1089 233.477 43.9624 233.848 43.8647 234.271C43.7671 234.694 43.7183 235.147 43.7183 235.628ZM57.7808 241.195C56.9995 241.195 56.2931 241.068 55.6616 240.814C55.0366 240.554 54.5028 240.192 54.0601 239.73C53.6239 239.268 53.2886 238.724 53.0542 238.099C52.8198 237.474 52.7026 236.8 52.7026 236.078V235.687C52.7026 234.86 52.8231 234.111 53.064 233.441C53.3049 232.77 53.6401 232.197 54.0698 231.722C54.4995 231.24 55.0073 230.873 55.5933 230.619C56.1792 230.365 56.814 230.238 57.4976 230.238C58.2528 230.238 58.9136 230.365 59.48 230.619C60.0464 230.873 60.5151 231.231 60.8862 231.693C61.2638 232.149 61.5438 232.692 61.7261 233.324C61.9149 233.955 62.0093 234.652 62.0093 235.414V236.419H53.8452V234.73H59.6851V234.544C59.672 234.121 59.5874 233.724 59.4312 233.353C59.2814 232.982 59.0503 232.682 58.7378 232.455C58.4253 232.227 58.0086 232.113 57.4878 232.113C57.0972 232.113 56.7489 232.197 56.4429 232.367C56.1434 232.529 55.8927 232.767 55.6909 233.08C55.4891 233.392 55.3328 233.77 55.2222 234.212C55.118 234.649 55.0659 235.14 55.0659 235.687V236.078C55.0659 236.54 55.1278 236.97 55.2515 237.367C55.3817 237.757 55.5705 238.099 55.8179 238.392C56.0653 238.685 56.3647 238.916 56.7163 239.085C57.0679 239.248 57.4683 239.33 57.9175 239.33C58.4839 239.33 58.9884 239.216 59.4312 238.988C59.8739 238.76 60.258 238.438 60.5835 238.021L61.8237 239.222C61.5959 239.554 61.2996 239.873 60.9351 240.179C60.5705 240.479 60.1245 240.723 59.5972 240.912C59.0763 241.1 58.4709 241.195 57.7808 241.195ZM73.1909 241H70.1538L70.1733 239.056H73.1909C74.0698 239.056 74.8055 238.864 75.3979 238.48C75.9969 238.096 76.4461 237.546 76.7456 236.83C77.0516 236.113 77.2046 235.261 77.2046 234.271V233.5C77.2046 232.731 77.1167 232.051 76.9409 231.458C76.7716 230.866 76.5177 230.368 76.1792 229.964C75.8472 229.561 75.437 229.255 74.9487 229.046C74.467 228.838 73.9103 228.734 73.2788 228.734H70.0952V226.781H73.2788C74.2228 226.781 75.0854 226.94 75.8667 227.259C76.6479 227.572 77.3218 228.024 77.8882 228.617C78.4611 229.209 78.9006 229.919 79.2065 230.746C79.5125 231.572 79.6655 232.497 79.6655 233.519V234.271C79.6655 235.293 79.5125 236.218 79.2065 237.044C78.9006 237.871 78.4611 238.581 77.8882 239.173C77.3153 239.759 76.6317 240.212 75.8374 240.531C75.0496 240.843 74.1675 241 73.1909 241ZM71.5112 226.781V241H69.0601V226.781H71.5112ZM86.5503 241.195C85.769 241.195 85.0627 241.068 84.4312 240.814C83.8062 240.554 83.2723 240.192 82.8296 239.73C82.3934 239.268 82.0581 238.724 81.8237 238.099C81.5894 237.474 81.4722 236.8 81.4722 236.078V235.687C81.4722 234.86 81.5926 234.111 81.8335 233.441C82.0744 232.77 82.4097 232.197 82.8394 231.722C83.269 231.24 83.7769 230.873 84.3628 230.619C84.9487 230.365 85.5835 230.238 86.2671 230.238C87.0223 230.238 87.6831 230.365 88.2495 230.619C88.8159 230.873 89.2847 231.231 89.6558 231.693C90.0334 232.149 90.3133 232.692 90.4956 233.324C90.6844 233.955 90.7788 234.652 90.7788 235.414V236.419H82.6147V234.73H88.4546V234.544C88.4416 234.121 88.3569 233.724 88.2007 233.353C88.0509 232.982 87.8198 232.682 87.5073 232.455C87.1948 232.227 86.7782 232.113 86.2573 232.113C85.8667 232.113 85.5184 232.197 85.2124 232.367C84.9129 232.529 84.6623 232.767 84.4604 233.08C84.2586 233.392 84.1024 233.77 83.9917 234.212C83.8875 234.649 83.8354 235.14 83.8354 235.687V236.078C83.8354 236.54 83.8973 236.97 84.021 237.367C84.1512 237.757 84.34 238.099 84.5874 238.392C84.8348 238.685 85.1343 238.916 85.4858 239.085C85.8374 239.248 86.2378 239.33 86.687 239.33C87.2534 239.33 87.758 239.216 88.2007 238.988C88.6434 238.76 89.0275 238.438 89.353 238.021L90.5933 239.222C90.3654 239.554 90.0692 239.873 89.7046 240.179C89.34 240.479 88.894 240.723 88.3667 240.912C87.8459 241.1 87.2404 241.195 86.5503 241.195ZM98.5425 238.138C98.5425 237.904 98.4839 237.692 98.3667 237.503C98.2495 237.308 98.0249 237.132 97.6929 236.976C97.3674 236.82 96.8856 236.677 96.2476 236.546C95.6877 236.423 95.1733 236.276 94.7046 236.107C94.2424 235.931 93.8452 235.72 93.5132 235.472C93.1812 235.225 92.924 234.932 92.7417 234.593C92.5594 234.255 92.4683 233.864 92.4683 233.421C92.4683 232.992 92.5627 232.585 92.7515 232.201C92.9403 231.817 93.2104 231.478 93.562 231.185C93.9136 230.892 94.34 230.661 94.8413 230.492C95.3491 230.322 95.9155 230.238 96.5405 230.238C97.4259 230.238 98.1844 230.388 98.8159 230.687C99.4539 230.98 99.9422 231.38 100.281 231.888C100.619 232.389 100.789 232.956 100.789 233.587H98.4351C98.4351 233.307 98.3634 233.047 98.2202 232.806C98.0835 232.559 97.8752 232.36 97.5952 232.21C97.3153 232.054 96.9637 231.976 96.5405 231.976C96.1369 231.976 95.8016 232.041 95.5347 232.171C95.2743 232.295 95.0789 232.458 94.9487 232.66C94.825 232.861 94.7632 233.083 94.7632 233.324C94.7632 233.5 94.7957 233.659 94.8608 233.802C94.9325 233.939 95.0496 234.066 95.2124 234.183C95.3752 234.294 95.5965 234.398 95.8765 234.496C96.1629 234.593 96.521 234.688 96.9507 234.779C97.758 234.948 98.4513 235.166 99.0308 235.433C99.6167 235.694 100.066 236.032 100.378 236.449C100.691 236.859 100.847 237.38 100.847 238.011C100.847 238.48 100.746 238.91 100.544 239.3C100.349 239.684 100.063 240.02 99.6851 240.306C99.3075 240.586 98.855 240.804 98.3276 240.96C97.8068 241.117 97.2209 241.195 96.5698 241.195C95.6128 241.195 94.8022 241.026 94.1382 240.687C93.4741 240.342 92.9696 239.903 92.6245 239.369C92.286 238.828 92.1167 238.268 92.1167 237.689H94.3921C94.4181 238.125 94.5386 238.473 94.7534 238.734C94.9748 238.988 95.2482 239.173 95.5737 239.291C95.9058 239.401 96.2476 239.457 96.5991 239.457C97.0223 239.457 97.3771 239.401 97.6636 239.291C97.95 239.173 98.1681 239.017 98.3179 238.822C98.4676 238.62 98.5425 238.392 98.5425 238.138ZM105.427 230.433V241H103.064V230.433H105.427ZM102.908 227.66C102.908 227.302 103.025 227.005 103.259 226.771C103.5 226.53 103.832 226.41 104.255 226.41C104.672 226.41 105.001 226.53 105.242 226.771C105.483 227.005 105.603 227.302 105.603 227.66C105.603 228.011 105.483 228.304 105.242 228.539C105.001 228.773 104.672 228.89 104.255 228.89C103.832 228.89 103.5 228.773 103.259 228.539C103.025 228.304 102.908 228.011 102.908 227.66ZM114.773 230.433H116.912V240.707C116.912 241.657 116.71 242.464 116.306 243.128C115.903 243.792 115.339 244.297 114.617 244.642C113.894 244.994 113.057 245.169 112.107 245.169C111.703 245.169 111.254 245.111 110.759 244.994C110.271 244.876 109.796 244.688 109.333 244.427C108.878 244.173 108.497 243.838 108.191 243.421L109.294 242.035C109.672 242.484 110.089 242.813 110.544 243.021C111 243.229 111.479 243.333 111.98 243.333C112.52 243.333 112.979 243.233 113.357 243.031C113.741 242.835 114.037 242.546 114.246 242.162C114.454 241.778 114.558 241.309 114.558 240.755V232.826L114.773 230.433ZM107.595 235.833V235.628C107.595 234.828 107.693 234.098 107.888 233.441C108.083 232.777 108.363 232.207 108.728 231.732C109.093 231.25 109.535 230.882 110.056 230.628C110.577 230.368 111.166 230.238 111.824 230.238C112.507 230.238 113.09 230.361 113.572 230.609C114.06 230.856 114.467 231.211 114.792 231.673C115.118 232.129 115.372 232.676 115.554 233.314C115.743 233.945 115.883 234.649 115.974 235.423V236.078C115.889 236.833 115.746 237.523 115.544 238.148C115.343 238.773 115.076 239.313 114.744 239.769C114.412 240.225 114.001 240.576 113.513 240.824C113.031 241.071 112.462 241.195 111.804 241.195C111.16 241.195 110.577 241.061 110.056 240.794C109.542 240.528 109.099 240.153 108.728 239.671C108.363 239.19 108.083 238.623 107.888 237.972C107.693 237.315 107.595 236.602 107.595 235.833ZM109.949 235.628V235.833C109.949 236.315 109.994 236.764 110.085 237.181C110.183 237.598 110.33 237.966 110.525 238.285C110.727 238.597 110.981 238.845 111.287 239.027C111.599 239.203 111.967 239.291 112.39 239.291C112.944 239.291 113.396 239.173 113.748 238.939C114.106 238.705 114.379 238.389 114.568 237.992C114.763 237.588 114.9 237.139 114.978 236.644V234.876C114.939 234.492 114.858 234.134 114.734 233.802C114.617 233.47 114.457 233.181 114.255 232.933C114.054 232.679 113.8 232.484 113.494 232.347C113.188 232.204 112.826 232.132 112.41 232.132C111.986 232.132 111.619 232.223 111.306 232.406C110.994 232.588 110.736 232.839 110.535 233.158C110.339 233.477 110.193 233.848 110.095 234.271C109.998 234.694 109.949 235.147 109.949 235.628ZM121.687 232.689V241H119.333V230.433H121.55L121.687 232.689ZM121.267 235.326L120.505 235.316C120.512 234.567 120.616 233.88 120.818 233.255C121.026 232.63 121.313 232.093 121.677 231.644C122.048 231.195 122.491 230.85 123.005 230.609C123.52 230.361 124.093 230.238 124.724 230.238C125.232 230.238 125.691 230.309 126.101 230.453C126.518 230.589 126.873 230.814 127.166 231.126C127.465 231.439 127.693 231.846 127.849 232.347C128.005 232.842 128.083 233.451 128.083 234.173V241H125.72V234.164C125.72 233.656 125.645 233.255 125.496 232.962C125.352 232.663 125.141 232.451 124.861 232.328C124.587 232.197 124.246 232.132 123.835 232.132C123.432 232.132 123.07 232.217 122.751 232.386C122.432 232.556 122.162 232.787 121.941 233.08C121.726 233.373 121.56 233.711 121.443 234.095C121.326 234.479 121.267 234.889 121.267 235.326ZM137.986 230.433V241H135.623V230.433H137.986ZM135.466 227.66C135.466 227.302 135.583 227.005 135.818 226.771C136.059 226.53 136.391 226.41 136.814 226.41C137.231 226.41 137.559 226.53 137.8 226.771C138.041 227.005 138.162 227.302 138.162 227.66C138.162 228.011 138.041 228.304 137.8 228.539C137.559 228.773 137.231 228.89 136.814 228.89C136.391 228.89 136.059 228.773 135.818 228.539C135.583 228.304 135.466 228.011 135.466 227.66ZM142.898 232.689V241H140.544V230.433H142.761L142.898 232.689ZM142.478 235.326L141.716 235.316C141.723 234.567 141.827 233.88 142.029 233.255C142.237 232.63 142.524 232.093 142.888 231.644C143.259 231.195 143.702 230.85 144.216 230.609C144.731 230.361 145.304 230.238 145.935 230.238C146.443 230.238 146.902 230.309 147.312 230.453C147.729 230.589 148.083 230.814 148.376 231.126C148.676 231.439 148.904 231.846 149.06 232.347C149.216 232.842 149.294 233.451 149.294 234.173V241H146.931V234.164C146.931 233.656 146.856 233.255 146.707 232.962C146.563 232.663 146.352 232.451 146.072 232.328C145.798 232.197 145.457 232.132 145.046 232.132C144.643 232.132 144.281 232.217 143.962 232.386C143.643 232.556 143.373 232.787 143.152 233.08C142.937 233.373 142.771 233.711 142.654 234.095C142.537 234.479 142.478 234.889 142.478 235.326ZM162.312 235.697H158.611V233.753H162.312C162.957 233.753 163.477 233.649 163.875 233.441C164.272 233.233 164.561 232.946 164.744 232.582C164.932 232.21 165.027 231.787 165.027 231.312C165.027 230.863 164.932 230.443 164.744 230.052C164.561 229.655 164.272 229.336 163.875 229.095C163.477 228.854 162.957 228.734 162.312 228.734H159.363V241H156.912V226.781H162.312C163.412 226.781 164.347 226.976 165.115 227.367C165.889 227.751 166.479 228.285 166.882 228.968C167.286 229.645 167.488 230.42 167.488 231.292C167.488 232.21 167.286 232.998 166.882 233.656C166.479 234.313 165.889 234.818 165.115 235.169C164.347 235.521 163.412 235.697 162.312 235.697ZM171.814 232.445V241H169.46V230.433H171.707L171.814 232.445ZM175.046 230.365L175.027 232.552C174.884 232.526 174.727 232.507 174.558 232.494C174.395 232.481 174.233 232.474 174.07 232.474C173.666 232.474 173.311 232.533 173.005 232.65C172.699 232.761 172.442 232.923 172.234 233.138C172.032 233.347 171.876 233.6 171.765 233.9C171.654 234.199 171.589 234.535 171.57 234.906L171.033 234.945C171.033 234.281 171.098 233.666 171.228 233.099C171.358 232.533 171.554 232.035 171.814 231.605C172.081 231.175 172.413 230.84 172.81 230.599C173.214 230.358 173.679 230.238 174.207 230.238C174.35 230.238 174.503 230.251 174.666 230.277C174.835 230.303 174.962 230.332 175.046 230.365ZM175.818 235.833V235.609C175.818 234.847 175.929 234.141 176.15 233.49C176.371 232.832 176.69 232.263 177.107 231.781C177.53 231.292 178.044 230.915 178.65 230.648C179.262 230.375 179.952 230.238 180.72 230.238C181.495 230.238 182.185 230.375 182.791 230.648C183.403 230.915 183.92 231.292 184.343 231.781C184.766 232.263 185.089 232.832 185.31 233.49C185.531 234.141 185.642 234.847 185.642 235.609V235.833C185.642 236.595 185.531 237.302 185.31 237.953C185.089 238.604 184.766 239.173 184.343 239.662C183.92 240.143 183.406 240.521 182.8 240.794C182.195 241.061 181.508 241.195 180.74 241.195C179.965 241.195 179.272 241.061 178.66 240.794C178.054 240.521 177.54 240.143 177.117 239.662C176.694 239.173 176.371 238.604 176.15 237.953C175.929 237.302 175.818 236.595 175.818 235.833ZM178.171 235.609V235.833C178.171 236.309 178.22 236.758 178.318 237.181C178.416 237.604 178.569 237.975 178.777 238.294C178.985 238.613 179.252 238.864 179.578 239.046C179.903 239.229 180.291 239.32 180.74 239.32C181.176 239.32 181.554 239.229 181.873 239.046C182.198 238.864 182.465 238.613 182.673 238.294C182.882 237.975 183.035 237.604 183.132 237.181C183.236 236.758 183.289 236.309 183.289 235.833V235.609C183.289 235.14 183.236 234.697 183.132 234.281C183.035 233.858 182.878 233.483 182.664 233.158C182.455 232.832 182.188 232.578 181.863 232.396C181.544 232.207 181.163 232.113 180.72 232.113C180.278 232.113 179.893 232.207 179.568 232.396C179.249 232.578 178.985 232.832 178.777 233.158C178.569 233.483 178.416 233.858 178.318 234.281C178.22 234.697 178.171 235.14 178.171 235.609ZM194.382 230.433H196.521V240.707C196.521 241.657 196.319 242.464 195.916 243.128C195.512 243.792 194.949 244.297 194.226 244.642C193.503 244.994 192.667 245.169 191.716 245.169C191.313 245.169 190.863 245.111 190.369 244.994C189.88 244.876 189.405 244.688 188.943 244.427C188.487 244.173 188.106 243.838 187.8 243.421L188.904 242.035C189.281 242.484 189.698 242.813 190.154 243.021C190.61 243.229 191.088 243.333 191.589 243.333C192.13 243.333 192.589 243.233 192.966 243.031C193.35 242.835 193.647 242.546 193.855 242.162C194.063 241.778 194.167 241.309 194.167 240.755V232.826L194.382 230.433ZM187.205 235.833V235.628C187.205 234.828 187.302 234.098 187.498 233.441C187.693 232.777 187.973 232.207 188.337 231.732C188.702 231.25 189.145 230.882 189.666 230.628C190.186 230.368 190.776 230.238 191.433 230.238C192.117 230.238 192.699 230.361 193.181 230.609C193.669 230.856 194.076 231.211 194.402 231.673C194.727 232.129 194.981 232.676 195.164 233.314C195.352 233.945 195.492 234.649 195.583 235.423V236.078C195.499 236.833 195.356 237.523 195.154 238.148C194.952 238.773 194.685 239.313 194.353 239.769C194.021 240.225 193.611 240.576 193.123 240.824C192.641 241.071 192.071 241.195 191.414 241.195C190.769 241.195 190.186 241.061 189.666 240.794C189.151 240.528 188.708 240.153 188.337 239.671C187.973 239.19 187.693 238.623 187.498 237.972C187.302 237.315 187.205 236.602 187.205 235.833ZM189.558 235.628V235.833C189.558 236.315 189.604 236.764 189.695 237.181C189.792 237.598 189.939 237.966 190.134 238.285C190.336 238.597 190.59 238.845 190.896 239.027C191.208 239.203 191.576 239.291 192 239.291C192.553 239.291 193.005 239.173 193.357 238.939C193.715 238.705 193.988 238.389 194.177 237.992C194.373 237.588 194.509 237.139 194.587 236.644V234.876C194.548 234.492 194.467 234.134 194.343 233.802C194.226 233.47 194.067 233.181 193.865 232.933C193.663 232.679 193.409 232.484 193.103 232.347C192.797 232.204 192.436 232.132 192.019 232.132C191.596 232.132 191.228 232.223 190.916 232.406C190.603 232.588 190.346 232.839 190.144 233.158C189.949 233.477 189.802 233.848 189.705 234.271C189.607 234.694 189.558 235.147 189.558 235.628ZM201.326 232.445V241H198.972V230.433H201.218L201.326 232.445ZM204.558 230.365L204.539 232.552C204.395 232.526 204.239 232.507 204.07 232.494C203.907 232.481 203.744 232.474 203.582 232.474C203.178 232.474 202.823 232.533 202.517 232.65C202.211 232.761 201.954 232.923 201.746 233.138C201.544 233.347 201.388 233.6 201.277 233.9C201.166 234.199 201.101 234.535 201.082 234.906L200.544 234.945C200.544 234.281 200.61 233.666 200.74 233.099C200.87 232.533 201.065 232.035 201.326 231.605C201.593 231.175 201.925 230.84 202.322 230.599C202.725 230.358 203.191 230.238 203.718 230.238C203.861 230.238 204.014 230.251 204.177 230.277C204.347 230.303 204.473 230.332 204.558 230.365ZM210.496 241.195C209.714 241.195 209.008 241.068 208.376 240.814C207.751 240.554 207.218 240.192 206.775 239.73C206.339 239.268 206.003 238.724 205.769 238.099C205.535 237.474 205.417 236.8 205.417 236.078V235.687C205.417 234.86 205.538 234.111 205.779 233.441C206.02 232.77 206.355 232.197 206.785 231.722C207.214 231.24 207.722 230.873 208.308 230.619C208.894 230.365 209.529 230.238 210.212 230.238C210.968 230.238 211.628 230.365 212.195 230.619C212.761 230.873 213.23 231.231 213.601 231.693C213.979 232.149 214.259 232.692 214.441 233.324C214.63 233.955 214.724 234.652 214.724 235.414V236.419H206.56V234.73H212.4V234.544C212.387 234.121 212.302 233.724 212.146 233.353C211.996 232.982 211.765 232.682 211.453 232.455C211.14 232.227 210.723 232.113 210.203 232.113C209.812 232.113 209.464 232.197 209.158 232.367C208.858 232.529 208.608 232.767 208.406 233.08C208.204 233.392 208.048 233.77 207.937 234.212C207.833 234.649 207.781 235.14 207.781 235.687V236.078C207.781 236.54 207.843 236.97 207.966 237.367C208.097 237.757 208.285 238.099 208.533 238.392C208.78 238.685 209.08 238.916 209.431 239.085C209.783 239.248 210.183 239.33 210.632 239.33C211.199 239.33 211.703 239.216 212.146 238.988C212.589 238.76 212.973 238.438 213.298 238.021L214.539 239.222C214.311 239.554 214.014 239.873 213.65 240.179C213.285 240.479 212.839 240.723 212.312 240.912C211.791 241.1 211.186 241.195 210.496 241.195ZM222.488 238.138C222.488 237.904 222.429 237.692 222.312 237.503C222.195 237.308 221.97 237.132 221.638 236.976C221.313 236.82 220.831 236.677 220.193 236.546C219.633 236.423 219.119 236.276 218.65 236.107C218.188 235.931 217.791 235.72 217.458 235.472C217.126 235.225 216.869 234.932 216.687 234.593C216.505 234.255 216.414 233.864 216.414 233.421C216.414 232.992 216.508 232.585 216.697 232.201C216.886 231.817 217.156 231.478 217.507 231.185C217.859 230.892 218.285 230.661 218.787 230.492C219.294 230.322 219.861 230.238 220.486 230.238C221.371 230.238 222.13 230.388 222.761 230.687C223.399 230.98 223.888 231.38 224.226 231.888C224.565 232.389 224.734 232.956 224.734 233.587H222.38C222.38 233.307 222.309 233.047 222.166 232.806C222.029 232.559 221.82 232.36 221.541 232.21C221.261 232.054 220.909 231.976 220.486 231.976C220.082 231.976 219.747 232.041 219.48 232.171C219.22 232.295 219.024 232.458 218.894 232.66C218.77 232.861 218.708 233.083 218.708 233.324C218.708 233.5 218.741 233.659 218.806 233.802C218.878 233.939 218.995 234.066 219.158 234.183C219.32 234.294 219.542 234.398 219.822 234.496C220.108 234.593 220.466 234.688 220.896 234.779C221.703 234.948 222.397 235.166 222.976 235.433C223.562 235.694 224.011 236.032 224.324 236.449C224.636 236.859 224.792 237.38 224.792 238.011C224.792 238.48 224.692 238.91 224.49 239.3C224.294 239.684 224.008 240.02 223.63 240.306C223.253 240.586 222.8 240.804 222.273 240.96C221.752 241.117 221.166 241.195 220.515 241.195C219.558 241.195 218.748 241.026 218.083 240.687C217.419 240.342 216.915 239.903 216.57 239.369C216.231 238.828 216.062 238.268 216.062 237.689H218.337C218.363 238.125 218.484 238.473 218.699 238.734C218.92 238.988 219.194 239.173 219.519 239.291C219.851 239.401 220.193 239.457 220.544 239.457C220.968 239.457 221.322 239.401 221.609 239.291C221.895 239.173 222.113 239.017 222.263 238.822C222.413 238.62 222.488 238.392 222.488 238.138ZM232.781 238.138C232.781 237.904 232.722 237.692 232.605 237.503C232.488 237.308 232.263 237.132 231.931 236.976C231.606 236.82 231.124 236.677 230.486 236.546C229.926 236.423 229.412 236.276 228.943 236.107C228.481 235.931 228.083 235.72 227.751 235.472C227.419 235.225 227.162 234.932 226.98 234.593C226.798 234.255 226.707 233.864 226.707 233.421C226.707 232.992 226.801 232.585 226.99 232.201C227.179 231.817 227.449 231.478 227.8 231.185C228.152 230.892 228.578 230.661 229.08 230.492C229.587 230.322 230.154 230.238 230.779 230.238C231.664 230.238 232.423 230.388 233.054 230.687C233.692 230.98 234.181 231.38 234.519 231.888C234.858 232.389 235.027 232.956 235.027 233.587H232.673C232.673 233.307 232.602 233.047 232.458 232.806C232.322 232.559 232.113 232.36 231.833 232.21C231.554 232.054 231.202 231.976 230.779 231.976C230.375 231.976 230.04 232.041 229.773 232.171C229.513 232.295 229.317 232.458 229.187 232.66C229.063 232.861 229.001 233.083 229.001 233.324C229.001 233.5 229.034 233.659 229.099 233.802C229.171 233.939 229.288 234.066 229.451 234.183C229.613 234.294 229.835 234.398 230.115 234.496C230.401 234.593 230.759 234.688 231.189 234.779C231.996 234.948 232.69 235.166 233.269 235.433C233.855 235.694 234.304 236.032 234.617 236.449C234.929 236.859 235.085 237.38 235.085 238.011C235.085 238.48 234.985 238.91 234.783 239.3C234.587 239.684 234.301 240.02 233.923 240.306C233.546 240.586 233.093 240.804 232.566 240.96C232.045 241.117 231.459 241.195 230.808 241.195C229.851 241.195 229.041 241.026 228.376 240.687C227.712 240.342 227.208 239.903 226.863 239.369C226.524 238.828 226.355 238.268 226.355 237.689H228.63C228.656 238.125 228.777 238.473 228.992 238.734C229.213 238.988 229.486 239.173 229.812 239.291C230.144 239.401 230.486 239.457 230.837 239.457C231.261 239.457 231.615 239.401 231.902 239.291C232.188 239.173 232.406 239.017 232.556 238.822C232.706 238.62 232.781 238.392 232.781 238.138ZM237.244 239.828C237.244 239.463 237.367 239.157 237.615 238.91C237.862 238.656 238.197 238.529 238.621 238.529C239.05 238.529 239.386 238.656 239.626 238.91C239.874 239.157 239.998 239.463 239.998 239.828C239.998 240.192 239.874 240.498 239.626 240.746C239.386 240.993 239.05 241.117 238.621 241.117C238.197 241.117 237.862 240.993 237.615 240.746C237.367 240.498 237.244 240.192 237.244 239.828ZM242.81 239.828C242.81 239.463 242.934 239.157 243.181 238.91C243.429 238.656 243.764 238.529 244.187 238.529C244.617 238.529 244.952 238.656 245.193 238.91C245.44 239.157 245.564 239.463 245.564 239.828C245.564 240.192 245.44 240.498 245.193 240.746C244.952 240.993 244.617 241.117 244.187 241.117C243.764 241.117 243.429 240.993 243.181 240.746C242.934 240.498 242.81 240.192 242.81 239.828ZM248.376 239.828C248.376 239.463 248.5 239.157 248.748 238.91C248.995 238.656 249.33 238.529 249.753 238.529C250.183 238.529 250.518 238.656 250.759 238.91C251.007 239.157 251.13 239.463 251.13 239.828C251.13 240.192 251.007 240.498 250.759 240.746C250.518 240.993 250.183 241.117 249.753 241.117C249.33 241.117 248.995 240.993 248.748 240.746C248.5 240.498 248.376 240.192 248.376 239.828ZM67.3022 264.371H69.7437C69.6655 265.302 69.4051 266.132 68.9624 266.861C68.5197 267.583 67.8979 268.153 67.0972 268.57C66.2964 268.986 65.3231 269.195 64.1772 269.195C63.2983 269.195 62.5073 269.039 61.8042 268.726C61.1011 268.407 60.4989 267.958 59.9976 267.378C59.4963 266.792 59.1121 266.086 58.8452 265.259C58.5848 264.432 58.4546 263.508 58.4546 262.486V261.304C58.4546 260.282 58.5881 259.358 58.855 258.531C59.1284 257.704 59.519 256.998 60.0269 256.412C60.5347 255.819 61.1434 255.367 61.853 255.054C62.5692 254.742 63.3732 254.585 64.2651 254.585C65.3979 254.585 66.355 254.794 67.1362 255.21C67.9175 255.627 68.5229 256.203 68.9526 256.939C69.3888 257.675 69.6558 258.518 69.7534 259.468H67.312C67.2469 258.856 67.1037 258.332 66.8823 257.896C66.6675 257.46 66.3485 257.128 65.9253 256.9C65.5021 256.666 64.9487 256.548 64.2651 256.548C63.7052 256.548 63.217 256.653 62.8003 256.861C62.3836 257.069 62.0353 257.375 61.7554 257.779C61.4754 258.182 61.2638 258.681 61.1206 259.273C60.9839 259.859 60.9155 260.529 60.9155 261.285V262.486C60.9155 263.202 60.9774 263.853 61.1011 264.439C61.2313 265.018 61.4266 265.516 61.687 265.933C61.9539 266.35 62.2925 266.672 62.7026 266.9C63.1128 267.128 63.6043 267.242 64.1772 267.242C64.8739 267.242 65.437 267.131 65.8667 266.91C66.3029 266.688 66.6317 266.366 66.853 265.943C67.0809 265.513 67.2306 264.989 67.3022 264.371ZM71.2866 263.833V263.609C71.2866 262.847 71.3973 262.141 71.6187 261.49C71.84 260.832 72.159 260.263 72.5757 259.781C72.9989 259.292 73.5132 258.915 74.1187 258.648C74.7306 258.375 75.4207 258.238 76.189 258.238C76.9637 258.238 77.6538 258.375 78.2593 258.648C78.8713 258.915 79.3888 259.292 79.812 259.781C80.2352 260.263 80.5575 260.832 80.7788 261.49C81.0002 262.141 81.1108 262.847 81.1108 263.609V263.833C81.1108 264.595 81.0002 265.302 80.7788 265.953C80.5575 266.604 80.2352 267.173 79.812 267.662C79.3888 268.143 78.8745 268.521 78.269 268.794C77.6636 269.061 76.9767 269.195 76.2085 269.195C75.4338 269.195 74.7404 269.061 74.1284 268.794C73.5229 268.521 73.0086 268.143 72.5854 267.662C72.1623 267.173 71.84 266.604 71.6187 265.953C71.3973 265.302 71.2866 264.595 71.2866 263.833ZM73.6401 263.609V263.833C73.6401 264.309 73.689 264.758 73.7866 265.181C73.8843 265.604 74.0373 265.975 74.2456 266.294C74.4539 266.613 74.7209 266.864 75.0464 267.046C75.3719 267.229 75.7593 267.32 76.2085 267.32C76.6447 267.32 77.0223 267.229 77.3413 267.046C77.6668 266.864 77.9338 266.613 78.1421 266.294C78.3504 265.975 78.5034 265.604 78.6011 265.181C78.7052 264.758 78.7573 264.309 78.7573 263.833V263.609C78.7573 263.14 78.7052 262.697 78.6011 262.281C78.5034 261.858 78.3472 261.483 78.1323 261.158C77.924 260.832 77.6571 260.578 77.3315 260.396C77.0125 260.207 76.6317 260.113 76.189 260.113C75.7463 260.113 75.3621 260.207 75.0366 260.396C74.7176 260.578 74.4539 260.832 74.2456 261.158C74.0373 261.483 73.8843 261.858 73.7866 262.281C73.689 262.697 73.6401 263.14 73.6401 263.609ZM85.437 260.582V269H83.0835V258.433H85.3003L85.437 260.582ZM85.0562 263.326L84.2554 263.316C84.2554 262.587 84.3465 261.913 84.5288 261.294C84.7111 260.676 84.978 260.139 85.3296 259.683C85.6812 259.221 86.1174 258.866 86.6382 258.619C87.1655 258.365 87.7743 258.238 88.4644 258.238C88.9461 258.238 89.3856 258.309 89.7827 258.453C90.1864 258.589 90.5347 258.807 90.8276 259.107C91.1271 259.406 91.355 259.791 91.5112 260.259C91.674 260.728 91.7554 261.294 91.7554 261.958V269H89.4019V262.164C89.4019 261.649 89.3237 261.246 89.1675 260.953C89.0177 260.66 88.7996 260.451 88.5132 260.328C88.2332 260.197 87.8979 260.132 87.5073 260.132C87.0646 260.132 86.687 260.217 86.3745 260.386C86.0685 260.556 85.8179 260.787 85.6226 261.08C85.4272 261.373 85.284 261.711 85.1929 262.095C85.1017 262.479 85.0562 262.889 85.0562 263.326ZM91.6089 262.701L90.5054 262.945C90.5054 262.307 90.5933 261.705 90.769 261.138C90.9513 260.565 91.215 260.064 91.5601 259.634C91.9116 259.198 92.3446 258.856 92.8589 258.609C93.3732 258.361 93.9624 258.238 94.6265 258.238C95.1668 258.238 95.6486 258.313 96.0718 258.462C96.5015 258.606 96.866 258.833 97.1655 259.146C97.465 259.458 97.6929 259.865 97.8491 260.367C98.0054 260.861 98.0835 261.46 98.0835 262.164V269H95.7202V262.154C95.7202 261.62 95.6421 261.207 95.4858 260.914C95.3361 260.621 95.1213 260.419 94.8413 260.308C94.5614 260.191 94.2261 260.132 93.8354 260.132C93.4709 260.132 93.1486 260.201 92.8687 260.337C92.5952 260.468 92.3641 260.653 92.1753 260.894C91.9865 261.128 91.8433 261.399 91.7456 261.705C91.6545 262.011 91.6089 262.343 91.6089 262.701ZM105.164 269.195C104.382 269.195 103.676 269.068 103.044 268.814C102.419 268.554 101.886 268.192 101.443 267.73C101.007 267.268 100.671 266.724 100.437 266.099C100.203 265.474 100.085 264.8 100.085 264.078V263.687C100.085 262.86 100.206 262.111 100.447 261.441C100.688 260.77 101.023 260.197 101.453 259.722C101.882 259.24 102.39 258.873 102.976 258.619C103.562 258.365 104.197 258.238 104.88 258.238C105.636 258.238 106.296 258.365 106.863 258.619C107.429 258.873 107.898 259.231 108.269 259.693C108.647 260.149 108.927 260.692 109.109 261.324C109.298 261.955 109.392 262.652 109.392 263.414V264.419H101.228V262.73H107.068V262.544C107.055 262.121 106.97 261.724 106.814 261.353C106.664 260.982 106.433 260.682 106.121 260.455C105.808 260.227 105.391 260.113 104.871 260.113C104.48 260.113 104.132 260.197 103.826 260.367C103.526 260.529 103.276 260.767 103.074 261.08C102.872 261.392 102.716 261.77 102.605 262.212C102.501 262.649 102.449 263.14 102.449 263.687V264.078C102.449 264.54 102.511 264.97 102.634 265.367C102.764 265.757 102.953 266.099 103.201 266.392C103.448 266.685 103.748 266.916 104.099 267.085C104.451 267.248 104.851 267.33 105.3 267.33C105.867 267.33 106.371 267.216 106.814 266.988C107.257 266.76 107.641 266.438 107.966 266.021L109.207 267.222C108.979 267.554 108.682 267.873 108.318 268.179C107.953 268.479 107.507 268.723 106.98 268.912C106.459 269.1 105.854 269.195 105.164 269.195ZM116.218 254H118.572V266.744L118.347 269H116.218V254ZM125.466 263.619V263.824C125.466 264.605 125.378 265.324 125.203 265.982C125.033 266.633 124.773 267.199 124.421 267.681C124.076 268.163 123.647 268.537 123.132 268.804C122.625 269.065 122.035 269.195 121.365 269.195C120.707 269.195 120.134 269.071 119.646 268.824C119.158 268.576 118.748 268.225 118.416 267.769C118.09 267.313 117.826 266.77 117.625 266.138C117.423 265.507 117.279 264.81 117.195 264.048V263.394C117.279 262.626 117.423 261.929 117.625 261.304C117.826 260.673 118.09 260.129 118.416 259.673C118.748 259.211 119.154 258.856 119.636 258.609C120.125 258.361 120.694 258.238 121.345 258.238C122.022 258.238 122.618 258.368 123.132 258.628C123.653 258.889 124.086 259.26 124.431 259.742C124.776 260.217 125.033 260.783 125.203 261.441C125.378 262.098 125.466 262.824 125.466 263.619ZM123.113 263.824V263.619C123.113 263.143 123.074 262.697 122.996 262.281C122.917 261.858 122.787 261.486 122.605 261.167C122.429 260.848 122.188 260.598 121.882 260.416C121.583 260.227 121.208 260.132 120.759 260.132C120.343 260.132 119.985 260.204 119.685 260.347C119.386 260.49 119.135 260.686 118.933 260.933C118.731 261.181 118.572 261.467 118.455 261.792C118.344 262.118 118.269 262.47 118.23 262.847V264.615C118.289 265.103 118.412 265.552 118.601 265.962C118.796 266.366 119.07 266.692 119.421 266.939C119.773 267.18 120.225 267.3 120.779 267.3C121.215 267.3 121.583 267.212 121.882 267.037C122.182 266.861 122.419 266.617 122.595 266.304C122.778 265.985 122.908 265.614 122.986 265.191C123.07 264.768 123.113 264.312 123.113 263.824ZM133.416 266.88V261.841C133.416 261.464 133.347 261.138 133.21 260.865C133.074 260.591 132.865 260.38 132.585 260.23C132.312 260.08 131.967 260.005 131.55 260.005C131.166 260.005 130.834 260.07 130.554 260.201C130.274 260.331 130.056 260.507 129.9 260.728C129.744 260.949 129.666 261.2 129.666 261.48H127.322C127.322 261.063 127.423 260.66 127.625 260.269C127.826 259.878 128.119 259.53 128.503 259.224C128.888 258.918 129.347 258.677 129.88 258.501C130.414 258.326 131.013 258.238 131.677 258.238C132.472 258.238 133.175 258.371 133.787 258.638C134.405 258.905 134.89 259.309 135.242 259.849C135.6 260.383 135.779 261.054 135.779 261.861V266.558C135.779 267.04 135.811 267.473 135.876 267.857C135.948 268.235 136.049 268.563 136.179 268.843V269H133.767C133.656 268.746 133.569 268.423 133.503 268.033C133.445 267.636 133.416 267.251 133.416 266.88ZM133.757 262.574L133.777 264.029H132.087C131.651 264.029 131.267 264.071 130.935 264.156C130.603 264.234 130.326 264.351 130.105 264.507C129.884 264.664 129.718 264.852 129.607 265.074C129.496 265.295 129.441 265.546 129.441 265.826C129.441 266.106 129.506 266.363 129.636 266.597C129.766 266.825 129.955 267.004 130.203 267.134C130.457 267.264 130.763 267.33 131.121 267.33C131.602 267.33 132.022 267.232 132.38 267.037C132.745 266.835 133.031 266.591 133.24 266.304C133.448 266.011 133.559 265.735 133.572 265.474L134.333 266.519C134.255 266.786 134.122 267.072 133.933 267.378C133.744 267.684 133.497 267.977 133.191 268.257C132.891 268.531 132.53 268.755 132.107 268.931C131.69 269.107 131.208 269.195 130.662 269.195C129.972 269.195 129.356 269.058 128.816 268.785C128.276 268.505 127.852 268.13 127.546 267.662C127.24 267.186 127.087 266.649 127.087 266.05C127.087 265.49 127.192 264.996 127.4 264.566C127.615 264.13 127.927 263.765 128.337 263.472C128.754 263.179 129.262 262.958 129.861 262.808C130.46 262.652 131.143 262.574 131.912 262.574H133.757ZM142.556 267.32C142.94 267.32 143.285 267.245 143.591 267.095C143.904 266.939 144.154 266.724 144.343 266.451C144.539 266.177 144.646 265.861 144.666 265.503H146.882C146.869 266.187 146.667 266.809 146.277 267.369C145.886 267.929 145.369 268.375 144.724 268.707C144.08 269.032 143.367 269.195 142.585 269.195C141.778 269.195 141.075 269.058 140.476 268.785C139.877 268.505 139.379 268.121 138.982 267.632C138.585 267.144 138.285 266.581 138.083 265.943C137.888 265.305 137.791 264.621 137.791 263.892V263.55C137.791 262.821 137.888 262.138 138.083 261.5C138.285 260.855 138.585 260.289 138.982 259.8C139.379 259.312 139.877 258.931 140.476 258.658C141.075 258.378 141.775 258.238 142.576 258.238C143.422 258.238 144.164 258.407 144.802 258.746C145.44 259.078 145.942 259.543 146.306 260.142C146.677 260.735 146.869 261.425 146.882 262.212H144.666C144.646 261.822 144.548 261.47 144.373 261.158C144.203 260.839 143.962 260.585 143.65 260.396C143.344 260.207 142.976 260.113 142.546 260.113C142.071 260.113 141.677 260.21 141.365 260.406C141.052 260.595 140.808 260.855 140.632 261.187C140.457 261.513 140.33 261.88 140.251 262.291C140.18 262.694 140.144 263.114 140.144 263.55V263.892C140.144 264.328 140.18 264.751 140.251 265.162C140.323 265.572 140.447 265.94 140.623 266.265C140.805 266.584 141.052 266.841 141.365 267.037C141.677 267.225 142.074 267.32 142.556 267.32ZM151.062 254V269H148.699V254H151.062ZM157.625 258.433L153.025 263.531L150.505 266.109L149.89 264.117L151.794 261.763L154.783 258.433H157.625ZM155.291 269L151.863 264.039L153.347 262.388L158.015 269H155.291ZM170.027 266.138C170.027 265.904 169.968 265.692 169.851 265.503C169.734 265.308 169.509 265.132 169.177 264.976C168.852 264.82 168.37 264.677 167.732 264.546C167.172 264.423 166.658 264.276 166.189 264.107C165.727 263.931 165.33 263.72 164.998 263.472C164.666 263.225 164.408 262.932 164.226 262.593C164.044 262.255 163.953 261.864 163.953 261.421C163.953 260.992 164.047 260.585 164.236 260.201C164.425 259.817 164.695 259.478 165.046 259.185C165.398 258.892 165.824 258.661 166.326 258.492C166.833 258.322 167.4 258.238 168.025 258.238C168.91 258.238 169.669 258.388 170.3 258.687C170.938 258.98 171.427 259.38 171.765 259.888C172.104 260.389 172.273 260.956 172.273 261.587H169.919C169.919 261.307 169.848 261.047 169.705 260.806C169.568 260.559 169.36 260.36 169.08 260.21C168.8 260.054 168.448 259.976 168.025 259.976C167.621 259.976 167.286 260.041 167.019 260.171C166.759 260.295 166.563 260.458 166.433 260.66C166.309 260.861 166.248 261.083 166.248 261.324C166.248 261.5 166.28 261.659 166.345 261.802C166.417 261.939 166.534 262.066 166.697 262.183C166.86 262.294 167.081 262.398 167.361 262.496C167.647 262.593 168.005 262.688 168.435 262.779C169.242 262.948 169.936 263.166 170.515 263.433C171.101 263.694 171.55 264.032 171.863 264.449C172.175 264.859 172.332 265.38 172.332 266.011C172.332 266.48 172.231 266.91 172.029 267.3C171.833 267.684 171.547 268.02 171.169 268.306C170.792 268.586 170.339 268.804 169.812 268.96C169.291 269.117 168.705 269.195 168.054 269.195C167.097 269.195 166.287 269.026 165.623 268.687C164.958 268.342 164.454 267.903 164.109 267.369C163.77 266.828 163.601 266.268 163.601 265.689H165.876C165.903 266.125 166.023 266.473 166.238 266.734C166.459 266.988 166.733 267.173 167.058 267.291C167.39 267.401 167.732 267.457 168.083 267.457C168.507 267.457 168.861 267.401 169.148 267.291C169.434 267.173 169.653 267.017 169.802 266.822C169.952 266.62 170.027 266.392 170.027 266.138ZM173.943 263.833V263.609C173.943 262.847 174.054 262.141 174.275 261.49C174.496 260.832 174.815 260.263 175.232 259.781C175.655 259.292 176.169 258.915 176.775 258.648C177.387 258.375 178.077 258.238 178.845 258.238C179.62 258.238 180.31 258.375 180.916 258.648C181.528 258.915 182.045 259.292 182.468 259.781C182.891 260.263 183.214 260.832 183.435 261.49C183.656 262.141 183.767 262.847 183.767 263.609V263.833C183.767 264.595 183.656 265.302 183.435 265.953C183.214 266.604 182.891 267.173 182.468 267.662C182.045 268.143 181.531 268.521 180.925 268.794C180.32 269.061 179.633 269.195 178.865 269.195C178.09 269.195 177.397 269.061 176.785 268.794C176.179 268.521 175.665 268.143 175.242 267.662C174.819 267.173 174.496 266.604 174.275 265.953C174.054 265.302 173.943 264.595 173.943 263.833ZM176.296 263.609V263.833C176.296 264.309 176.345 264.758 176.443 265.181C176.541 265.604 176.694 265.975 176.902 266.294C177.11 266.613 177.377 266.864 177.703 267.046C178.028 267.229 178.416 267.32 178.865 267.32C179.301 267.32 179.679 267.229 179.998 267.046C180.323 266.864 180.59 266.613 180.798 266.294C181.007 265.975 181.16 265.604 181.257 265.181C181.361 264.758 181.414 264.309 181.414 263.833V263.609C181.414 263.14 181.361 262.697 181.257 262.281C181.16 261.858 181.003 261.483 180.789 261.158C180.58 260.832 180.313 260.578 179.988 260.396C179.669 260.207 179.288 260.113 178.845 260.113C178.403 260.113 178.018 260.207 177.693 260.396C177.374 260.578 177.11 260.832 176.902 261.158C176.694 261.483 176.541 261.858 176.443 262.281C176.345 262.697 176.296 263.14 176.296 263.609ZM185.291 263.833V263.609C185.291 262.847 185.401 262.141 185.623 261.49C185.844 260.832 186.163 260.263 186.58 259.781C187.003 259.292 187.517 258.915 188.123 258.648C188.735 258.375 189.425 258.238 190.193 258.238C190.968 258.238 191.658 258.375 192.263 258.648C192.875 258.915 193.393 259.292 193.816 259.781C194.239 260.263 194.561 260.832 194.783 261.49C195.004 262.141 195.115 262.847 195.115 263.609V263.833C195.115 264.595 195.004 265.302 194.783 265.953C194.561 266.604 194.239 267.173 193.816 267.662C193.393 268.143 192.878 268.521 192.273 268.794C191.667 269.061 190.981 269.195 190.212 269.195C189.438 269.195 188.744 269.061 188.132 268.794C187.527 268.521 187.013 268.143 186.589 267.662C186.166 267.173 185.844 266.604 185.623 265.953C185.401 265.302 185.291 264.595 185.291 263.833ZM187.644 263.609V263.833C187.644 264.309 187.693 264.758 187.791 265.181C187.888 265.604 188.041 265.975 188.25 266.294C188.458 266.613 188.725 266.864 189.05 267.046C189.376 267.229 189.763 267.32 190.212 267.32C190.649 267.32 191.026 267.229 191.345 267.046C191.671 266.864 191.938 266.613 192.146 266.294C192.354 265.975 192.507 265.604 192.605 265.181C192.709 264.758 192.761 264.309 192.761 263.833V263.609C192.761 263.14 192.709 262.697 192.605 262.281C192.507 261.858 192.351 261.483 192.136 261.158C191.928 260.832 191.661 260.578 191.335 260.396C191.016 260.207 190.636 260.113 190.193 260.113C189.75 260.113 189.366 260.207 189.041 260.396C188.722 260.578 188.458 260.832 188.25 261.158C188.041 261.483 187.888 261.858 187.791 262.281C187.693 262.697 187.644 263.14 187.644 263.609ZM199.421 260.689V269H197.068V258.433H199.285L199.421 260.689ZM199.001 263.326L198.24 263.316C198.246 262.567 198.35 261.88 198.552 261.255C198.761 260.63 199.047 260.093 199.412 259.644C199.783 259.195 200.225 258.85 200.74 258.609C201.254 258.361 201.827 258.238 202.458 258.238C202.966 258.238 203.425 258.309 203.835 258.453C204.252 258.589 204.607 258.814 204.9 259.126C205.199 259.439 205.427 259.846 205.583 260.347C205.74 260.842 205.818 261.451 205.818 262.173V269H203.455V262.164C203.455 261.656 203.38 261.255 203.23 260.962C203.087 260.663 202.875 260.451 202.595 260.328C202.322 260.197 201.98 260.132 201.57 260.132C201.166 260.132 200.805 260.217 200.486 260.386C200.167 260.556 199.897 260.787 199.675 261.08C199.46 261.373 199.294 261.711 199.177 262.095C199.06 262.479 199.001 262.889 199.001 263.326ZM210.935 254.781L210.701 264.81H208.689L208.445 254.781H210.935ZM208.376 267.886C208.376 267.528 208.494 267.229 208.728 266.988C208.969 266.74 209.301 266.617 209.724 266.617C210.141 266.617 210.47 266.74 210.71 266.988C210.951 267.229 211.072 267.528 211.072 267.886C211.072 268.231 210.951 268.528 210.71 268.775C210.47 269.016 210.141 269.136 209.724 269.136C209.301 269.136 208.969 269.016 208.728 268.775C208.494 268.528 208.376 268.231 208.376 267.886Z" fill="#B6BFCC"/>
<path d="M108.866 314.246L112.051 310.1C112.405 310.417 112.729 310.719 113.058 310.994C113.757 311.566 114.458 312.135 115.167 312.677C115.797 313.157 116.436 313.618 117.078 314.053C117.569 314.382 118.066 314.684 118.566 314.957C119.31 315.368 120.056 315.771 120.805 316.128C121.296 316.351 121.787 316.535 122.274 316.679C123.138 316.973 123.98 317.077 124.755 316.985C125.47 316.866 126.041 316.444 126.384 315.78C126.708 315.206 126.926 314.533 127.029 313.786C127.145 312.929 127.217 312.046 127.243 311.142C127.26 310.52 127.236 309.88 127.173 309.226C127.098 308.382 126.99 307.527 126.871 306.67C126.781 306.038 126.669 305.399 126.533 304.757C126.407 304.159 126.248 303.552 126.085 302.95C125.896 302.257 125.707 301.569 125.483 300.869C125.363 300.516 125.228 300.163 125.078 299.812C124.971 299.547 124.842 299.285 124.75 299.017C124.739 298.966 124.737 298.917 124.744 298.874C124.752 298.83 124.769 298.793 124.795 298.766C125.081 298.546 125.376 298.339 125.68 298.146C126.065 297.897 126.464 297.666 126.857 297.426L129.005 296.112L129.209 295.999C129.297 296.2 129.38 296.373 129.449 296.548C129.719 297.221 129.983 297.892 130.247 298.566C130.354 298.842 130.472 299.122 130.559 299.394C130.759 300.021 130.95 300.647 131.136 301.275C131.273 301.735 131.412 302.198 131.514 302.656C131.674 303.348 131.816 304.039 131.953 304.728C132.068 305.312 132.182 305.896 132.262 306.473C132.375 307.28 132.492 308.092 132.543 308.88C132.612 309.905 132.658 310.926 132.643 311.916C132.62 312.75 132.551 313.561 132.436 314.346C132.342 315.059 132.204 315.747 132.025 316.404C131.733 317.467 131.302 318.421 130.741 319.244C130.241 319.97 129.641 320.584 128.953 321.072C128.023 321.728 126.939 322.138 125.744 322.286C124.827 322.414 123.85 322.381 122.84 322.19C122.187 322.06 121.531 321.937 120.87 321.734C119.843 321.432 118.805 321.012 117.772 320.481C116.948 320.049 116.118 319.623 115.297 319.123C114.532 318.658 113.773 318.15 113.026 317.603C112.197 317.002 111.379 316.357 110.566 315.705C110.012 315.257 109.47 314.764 108.866 314.246Z" fill="#D8E7A8"/>
<path d="M123.788 313.974C122.933 314.466 121.902 314.642 120.794 314.483C119.851 314.337 118.951 313.927 118.144 313.081C117.72 312.637 117.4 312.082 117.235 311.508C116.775 309.941 117.13 308.787 117.805 307.83C118.681 306.546 120.075 305.863 121.715 305.912C122.33 305.914 122.983 306.075 123.628 306.384C124.697 306.902 125.476 307.787 125.887 308.99C126.161 309.794 126.109 310.539 125.938 311.235C125.642 312.443 124.793 313.458 123.788 313.974Z" fill="#BCD43B"/>
<path d="M160.748 314.3L157.563 310.153C157.209 310.47 156.885 310.772 156.556 311.047C155.857 311.619 155.156 312.188 154.447 312.73C153.817 313.211 153.178 313.671 152.536 314.106C152.045 314.435 151.548 314.737 151.048 315.011C150.304 315.421 149.558 315.825 148.809 316.181C148.318 316.404 147.827 316.589 147.34 316.732C146.476 317.027 145.634 317.131 144.859 317.039C144.144 316.919 143.573 316.497 143.23 315.834C142.906 315.259 142.688 314.586 142.585 313.839C142.469 312.982 142.397 312.099 142.371 311.195C142.354 310.573 142.378 309.933 142.441 309.279C142.516 308.435 142.624 307.581 142.743 306.723C142.833 306.091 142.945 305.452 143.082 304.81C143.207 304.212 143.366 303.605 143.529 303.003C143.718 302.31 143.907 301.622 144.131 300.923C144.251 300.569 144.386 300.216 144.536 299.866C144.643 299.6 144.772 299.338 144.864 299.071C144.875 299.02 144.877 298.971 144.87 298.927C144.862 298.883 144.845 298.847 144.819 298.819C144.533 298.599 144.238 298.393 143.935 298.199C143.549 297.95 143.15 297.719 142.757 297.479L140.609 296.165L140.405 296.052C140.317 296.254 140.234 296.426 140.165 296.601C139.895 297.274 139.631 297.945 139.367 298.619C139.26 298.895 139.142 299.176 139.055 299.448C138.855 300.075 138.664 300.7 138.478 301.328C138.341 301.789 138.202 302.252 138.1 302.709C137.94 303.401 137.798 304.092 137.661 304.781C137.546 305.365 137.432 305.949 137.352 306.526C137.239 307.333 137.123 308.145 137.071 308.934C137.002 309.958 136.956 310.979 136.971 311.97C136.994 312.803 137.063 313.615 137.178 314.399C137.272 315.112 137.41 315.8 137.589 316.457C137.881 317.52 138.312 318.474 138.873 319.297C139.373 320.024 139.973 320.637 140.661 321.125C141.591 321.781 142.675 322.191 143.87 322.339C144.787 322.467 145.764 322.435 146.774 322.244C147.427 322.114 148.083 321.99 148.744 321.787C149.771 321.485 150.809 321.065 151.842 320.534C152.666 320.102 153.496 319.677 154.317 319.177C155.083 318.711 155.841 318.204 156.588 317.656C157.417 317.056 158.235 316.41 159.048 315.758C159.602 315.31 160.144 314.818 160.748 314.3Z" fill="#D8E7A8"/>
<path d="M145.826 314.028C146.681 314.52 147.712 314.695 148.82 314.536C149.763 314.391 150.663 313.98 151.47 313.134C151.894 312.69 152.214 312.135 152.379 311.561C152.839 309.994 152.484 308.841 151.809 307.883C150.933 306.599 149.539 305.916 147.899 305.965C147.284 305.967 146.631 306.128 145.986 306.437C144.917 306.955 144.138 307.841 143.727 309.044C143.453 309.848 143.505 310.592 143.676 311.288C143.972 312.496 144.821 313.511 145.826 314.028Z" fill="#BCD43B"/>
<path d="M103.274 323.667C103.375 323.442 103.489 323.171 103.615 322.91C103.971 322.179 104.324 321.446 104.691 320.725C104.935 320.243 105.207 319.781 105.456 319.307C105.603 319.037 105.684 319.012 105.986 319.158C106.634 319.46 107.282 319.762 107.918 320.088C108.657 320.471 109.394 320.869 110.124 321.302C110.957 321.798 111.79 322.31 112.607 322.866C113.32 323.351 114.018 323.901 114.715 324.439C115.309 324.909 115.908 325.388 116.497 325.885C116.877 326.216 117.246 326.569 117.601 326.942C118.137 327.49 118.662 328.053 119.186 328.617C119.305 328.747 119.393 328.914 119.507 329.051C120.27 329.992 120.935 331.021 121.479 332.101C121.896 332.908 122.188 333.753 122.34 334.585C122.512 335.531 122.514 336.443 122.348 337.262C122.189 338.045 121.922 338.758 121.555 339.381C121.014 340.294 120.342 341.074 119.554 341.702C118.659 342.427 117.677 343.029 116.621 343.5C115.781 343.891 114.9 344.213 114.005 344.504C113.27 344.751 112.507 344.95 111.735 345.112C110.59 345.353 109.445 345.608 108.26 345.739C106.672 345.914 105.051 345.991 103.435 346.078C102.633 346.12 101.809 346.096 100.947 346.094C100.843 345.69 100.737 345.331 100.656 344.962C100.528 344.374 100.401 343.785 100.312 343.201C100.199 342.463 100.127 341.731 100.036 340.997C100.025 340.931 100.036 340.872 100.067 340.831C100.098 340.791 100.147 340.773 100.203 340.782L100.231 340.788C102.586 340.981 104.875 340.914 107.071 340.588C108.487 340.381 109.883 340.105 111.255 339.808C111.957 339.639 112.637 339.419 113.291 339.149C113.919 338.905 114.534 338.638 115.115 338.316C115.726 338.003 116.248 337.546 116.658 336.966C116.825 336.745 116.933 336.465 116.973 336.145C117.012 335.824 116.983 335.472 116.887 335.114C116.721 334.479 116.421 333.85 116.017 333.289C115.753 332.905 115.476 332.532 115.186 332.171C114.837 331.752 114.458 331.364 114.085 330.972C113.811 330.683 113.53 330.398 113.25 330.14C112.903 329.823 112.56 329.512 112.208 329.211C111.856 328.911 111.473 328.597 111.103 328.302C110.835 328.09 110.564 327.888 110.29 327.698C109.561 327.197 108.837 326.68 108.099 326.214C107.464 325.814 106.822 325.446 106.176 325.112C105.223 324.605 104.26 324.149 103.274 323.667Z" fill="#93CAE0"/>
<path d="M110.875 337.752C109.93 338.246 108.904 338.453 107.697 338.108C106.989 337.905 106.322 337.546 105.729 336.835C105.467 336.529 105.252 336.178 105.099 335.809C104.946 335.44 104.861 335.062 104.848 334.704C104.754 333.269 105.32 332.341 106.124 331.611C106.772 331.019 107.596 330.676 108.525 330.612C109.351 330.549 110.201 330.693 111.071 331.23C111.716 331.63 112.267 332.205 112.577 332.97C112.83 333.595 112.925 334.234 112.849 334.799C112.692 336.047 112.09 336.891 111.249 337.509C111.12 337.604 110.989 337.679 110.875 337.752Z" fill="#2BBBB8"/>
<path d="M166.487 323.71C166.386 323.485 166.272 323.213 166.146 322.952C165.79 322.222 165.437 321.488 165.07 320.768C164.826 320.286 164.554 319.824 164.305 319.35C164.158 319.08 164.077 319.055 163.775 319.2C163.127 319.502 162.479 319.804 161.843 320.13C161.104 320.514 160.367 320.912 159.637 321.344C158.803 321.84 157.971 322.353 157.154 322.909C156.44 323.394 155.742 323.943 155.046 324.482C154.452 324.952 153.852 325.43 153.264 325.927C152.884 326.259 152.515 326.612 152.159 326.984C151.623 327.532 151.098 328.095 150.575 328.659C150.456 328.789 150.367 328.956 150.254 329.093C149.491 330.034 148.826 331.063 148.281 332.144C147.865 332.951 147.572 333.795 147.42 334.627C147.249 335.574 147.246 336.485 147.413 337.304C147.572 338.087 147.839 338.801 148.206 339.423C148.746 340.336 149.419 341.117 150.207 341.745C151.102 342.47 152.083 343.072 153.139 343.543C153.98 343.934 154.861 344.255 155.756 344.546C156.491 344.794 157.253 344.992 158.026 345.155C159.171 345.396 160.316 345.651 161.501 345.782C163.088 345.956 164.71 346.033 166.325 346.12C167.128 346.163 167.951 346.138 168.813 346.137C168.918 345.733 169.023 345.373 169.105 345.005C169.232 344.416 169.36 343.827 169.449 343.243C169.561 342.505 169.634 341.774 169.724 341.039C169.736 340.974 169.725 340.914 169.694 340.874C169.663 340.834 169.614 340.816 169.558 340.824L169.529 340.83C167.175 341.024 164.885 340.957 162.689 340.631C161.274 340.423 159.878 340.148 158.506 339.85C157.804 339.681 157.124 339.461 156.47 339.191C155.842 338.948 155.227 338.681 154.646 338.358C154.035 338.045 153.513 337.589 153.103 337.008C152.935 336.788 152.828 336.507 152.788 336.187C152.748 335.867 152.778 335.515 152.874 335.156C153.04 334.521 153.34 333.892 153.744 333.331C154.008 332.948 154.285 332.575 154.575 332.213C154.924 331.795 155.303 331.406 155.676 331.014C155.95 330.726 156.23 330.441 156.511 330.182C156.857 329.866 157.201 329.554 157.553 329.254C157.905 328.954 158.287 328.639 158.658 328.345C158.926 328.132 159.197 327.931 159.471 327.741C160.199 327.239 160.924 326.722 161.662 326.257C162.297 325.857 162.938 325.489 163.584 325.155C164.538 324.648 165.501 324.192 166.487 323.71Z" fill="#35A8B7"/>
<path d="M158.739 337.805C159.684 338.298 160.71 338.505 161.917 338.161C162.625 337.957 163.292 337.599 163.885 336.888C164.147 336.581 164.362 336.231 164.515 335.862C164.668 335.493 164.753 335.115 164.766 334.756C164.86 333.322 164.294 332.394 163.49 331.664C162.842 331.072 162.018 330.729 161.089 330.664C160.263 330.602 159.413 330.746 158.543 331.283C157.898 331.683 157.347 332.258 157.037 333.023C156.784 333.648 156.689 334.287 156.765 334.852C156.922 336.099 157.524 336.944 158.365 337.562C158.494 337.657 158.626 337.731 158.739 337.805Z" fill="#35A8B7"/>
<path d="M127.449 366.816C127.604 366.329 127.774 365.887 127.885 365.415C128.096 364.519 128.295 363.615 128.452 362.697C128.604 361.846 128.706 360.982 128.791 360.11C128.85 359.495 128.857 358.856 128.863 358.223C128.87 357.476 128.872 356.722 128.835 355.972C128.798 355.383 128.733 354.788 128.64 354.19C128.564 353.647 128.457 353.099 128.352 352.552C128.315 352.367 128.263 352.181 128.195 351.998C128.067 351.641 127.933 351.288 127.78 350.928C127.666 350.645 127.528 350.367 127.37 350.101C126.933 349.41 126.35 348.922 125.653 348.828C125.156 348.765 124.674 348.791 124.226 348.906C123.561 349.091 122.916 349.321 122.295 349.596C121.816 349.798 121.354 350.033 120.911 350.299C120.383 350.614 119.877 350.968 119.366 351.322C118.855 351.677 118.369 352.02 117.884 352.388C117.497 352.682 117.122 352.994 116.757 353.315C116.141 353.868 115.521 354.412 114.924 354.986C114.372 355.517 113.839 356.074 113.316 356.64C112.771 357.23 112.22 357.82 111.721 358.458C111.156 359.176 110.65 359.94 110.128 360.694C110.104 360.752 110.057 360.791 109.996 360.803C109.936 360.814 109.868 360.796 109.807 360.754L109.779 360.732C109.234 360.318 108.683 359.908 108.15 359.469C107.533 358.955 106.94 358.427 106.339 357.904C106.21 357.798 106.09 357.676 105.982 357.544C105.959 357.502 105.946 357.458 105.942 357.415C105.938 357.372 105.945 357.331 105.961 357.297C106.707 356.328 107.437 355.333 108.24 354.407C109.077 353.439 109.961 352.52 110.861 351.621C111.559 350.925 112.305 350.287 113.04 349.637C113.511 349.219 113.991 348.812 114.487 348.427C114.983 348.042 115.502 347.709 116.001 347.336C117.144 346.516 118.354 345.794 119.622 345.173C120.271 344.847 120.947 344.571 121.648 344.348C122.429 344.09 123.23 343.871 124.048 343.702C124.819 343.554 125.629 343.519 126.458 343.596C127.204 343.65 127.967 343.831 128.721 344.132C129.317 344.355 129.896 344.698 130.427 345.141C130.844 345.505 131.248 345.889 131.646 346.28C131.783 346.427 131.903 346.592 132 346.769C132.365 347.388 132.755 348 133.072 348.641C133.294 349.091 133.413 349.581 133.574 350.054C133.626 350.213 133.671 350.372 133.713 350.533C133.858 351.079 134.025 351.625 134.136 352.171C134.264 352.776 134.356 353.38 134.412 353.978C134.496 354.91 134.549 355.833 134.57 356.745C134.59 357.482 134.574 358.211 134.524 358.927C134.439 360.067 134.332 361.201 134.189 362.316C134.086 363.131 133.929 363.927 133.762 364.713C133.595 365.5 133.392 366.213 133.209 366.963C133.199 367.023 133.17 367.072 133.126 367.105C133.083 367.137 133.028 367.15 132.969 367.142C132.225 367.126 131.477 367.111 130.721 367.066C129.965 367.022 129.202 366.979 128.441 366.925C128.119 366.899 127.793 366.855 127.449 366.816Z" fill="#C4E1C0"/>
<path d="M124.192 360.369C123.44 360.843 122.516 361.02 121.518 360.882C120.679 360.778 119.82 360.459 119.066 359.713C118.531 359.194 118.134 358.51 117.961 357.808C117.653 356.535 117.922 355.561 118.445 354.715C118.894 353.988 119.521 353.445 120.279 353.127C120.719 352.963 121.18 352.844 121.659 352.77C122.262 352.656 122.931 352.73 123.607 352.987C124.106 353.144 124.601 353.438 125.047 353.84C125.393 354.169 125.694 354.562 125.927 354.991C126.459 355.939 126.484 356.809 126.324 357.608C126.108 358.686 125.529 359.459 124.77 360.039C124.587 360.164 124.394 360.274 124.192 360.369Z" fill="#CEECFB"/>
<path d="M142.165 366.869C142.01 366.382 141.84 365.94 141.729 365.468C141.518 364.572 141.319 363.668 141.162 362.75C141.01 361.899 140.908 361.035 140.823 360.163C140.764 359.547 140.757 358.909 140.75 358.275C140.744 357.528 140.742 356.775 140.779 356.024C140.815 355.435 140.88 354.841 140.974 354.243C141.049 353.699 141.157 353.152 141.261 352.605C141.298 352.419 141.351 352.234 141.418 352.05C141.547 351.694 141.681 351.341 141.833 350.981C141.948 350.697 142.085 350.42 142.243 350.153C142.681 349.463 143.263 348.975 143.961 348.881C144.457 348.817 144.939 348.844 145.388 348.959C146.053 349.144 146.697 349.374 147.319 349.648C147.798 349.851 148.26 350.086 148.703 350.352C149.231 350.667 149.736 351.02 150.248 351.375C150.759 351.73 151.245 352.073 151.73 352.441C152.116 352.735 152.492 353.047 152.857 353.368C153.473 353.921 154.093 354.464 154.689 355.039C155.242 355.57 155.774 356.127 156.297 356.693C156.843 357.282 157.393 357.872 157.893 358.511C158.458 359.229 158.964 359.993 159.486 360.746C159.51 360.805 159.557 360.844 159.617 360.855C159.678 360.867 159.746 360.849 159.807 360.806L159.835 360.785C160.38 360.37 160.931 359.96 161.464 359.522C162.08 359.007 162.674 358.48 163.274 357.957C163.403 357.85 163.523 357.729 163.632 357.596C163.654 357.555 163.668 357.511 163.672 357.468C163.675 357.424 163.669 357.384 163.653 357.349C162.907 356.38 162.177 355.386 161.374 354.46C160.536 353.491 159.652 352.572 158.752 351.674C158.055 350.978 157.309 350.34 156.574 349.69C156.102 349.272 155.623 348.865 155.127 348.48C154.631 348.095 154.112 347.761 153.613 347.388C152.47 346.569 151.26 345.847 149.991 345.226C149.343 344.899 148.667 344.624 147.966 344.401C147.185 344.143 146.384 343.923 145.566 343.754C144.795 343.607 143.985 343.572 143.155 343.649C142.41 343.703 141.647 343.884 140.893 344.185C140.297 344.408 139.717 344.751 139.187 345.194C138.77 345.558 138.366 345.942 137.968 346.333C137.831 346.48 137.711 346.645 137.614 346.822C137.248 347.441 136.859 348.052 136.541 348.693C136.319 349.144 136.201 349.634 136.04 350.107C135.987 350.266 135.943 350.425 135.901 350.585C135.756 351.131 135.588 351.678 135.478 352.224C135.35 352.829 135.258 353.433 135.202 354.031C135.118 354.963 135.065 355.885 135.044 356.798C135.024 357.535 135.039 358.263 135.09 358.979C135.175 360.12 135.282 361.254 135.425 362.369C135.528 363.184 135.685 363.98 135.852 364.766C136.019 365.553 136.222 366.265 136.404 367.015C136.415 367.075 136.444 367.125 136.487 367.157C136.531 367.19 136.586 367.203 136.645 367.195C137.389 367.178 138.137 367.164 138.893 367.119C139.648 367.074 140.411 367.032 141.173 366.977C141.494 366.952 141.821 366.908 142.165 366.869Z" fill="#C4E1C0"/>
<path d="M145.422 360.422C146.174 360.896 147.098 361.073 148.095 360.935C148.935 360.831 149.794 360.511 150.547 359.766C151.083 359.247 151.48 358.563 151.653 357.86C151.96 356.588 151.692 355.614 151.169 354.768C150.72 354.041 150.093 353.498 149.334 353.18C148.895 353.016 148.434 352.897 147.955 352.823C147.351 352.709 146.682 352.783 146.006 353.04C145.508 353.197 145.013 353.49 144.567 353.893C144.22 354.222 143.92 354.615 143.686 355.044C143.155 355.991 143.129 356.862 143.29 357.66C143.505 358.738 144.085 359.512 144.844 360.092C145.027 360.217 145.22 360.327 145.422 360.422Z" fill="#CEECFB"/>
<defs>
<filter id="filter0_d_480_6108" x="0.211182" y="60.8887" width="67.8459" height="57.1299" filterUnits="userSpaceOnUse" color-interpolation-filters="sRGB">
<feFlood flood-opacity="0" result="BackgroundImageFix"/>
<feColorMatrix in="SourceAlpha" type="matrix" values="0 0 0 0 0 0 0 0 0 0 0 0 0 0 0 0 0 0 127 0" result="hardAlpha"/>
<feOffset dx="-4"/>
<feGaussianBlur stdDeviation="5"/>
<feColorMatrix type="matrix" values="0 0 0 0 0.397708 0 0 0 0 0.47749 0 0 0 0 0.575 0 0 0 0.15 0"/>
<feBlend mode="normal" in2="BackgroundImageFix" result="effect1_dropShadow_480_6108"/>
<feBlend mode="normal" in="SourceGraphic" in2="effect1_dropShadow_480_6108" result="shape"/>
</filter>
<filter id="filter1_d_480_6108" x="210.414" y="86.2178" width="58.3179" height="57.2119" filterUnits="userSpaceOnUse" color-interpolation-filters="sRGB">
<feFlood flood-opacity="0" result="BackgroundImageFix"/>
<feColorMatrix in="SourceAlpha" type="matrix" values="0 0 0 0 0 0 0 0 0 0 0 0 0 0 0 0 0 0 127 0" result="hardAlpha"/>
<feOffset dx="-4"/>
<feGaussianBlur stdDeviation="5"/>
<feColorMatrix type="matrix" values="0 0 0 0 0.397708 0 0 0 0 0.47749 0 0 0 0 0.575 0 0 0 0.15 0"/>
<feBlend mode="normal" in2="BackgroundImageFix" result="effect1_dropShadow_480_6108"/>
<feBlend mode="normal" in="SourceGraphic" in2="effect1_dropShadow_480_6108" result="shape"/>
</filter>
<filter id="filter2_d_480_6108" x="42.6956" y="109.176" width="164.943" height="123.823" filterUnits="userSpaceOnUse" color-interpolation-filters="sRGB">
<feFlood flood-opacity="0" result="BackgroundImageFix"/>
<feColorMatrix in="SourceAlpha" type="matrix" values="0 0 0 0 0 0 0 0 0 0 0 0 0 0 0 0 0 0 127 0" result="hardAlpha"/>
<feOffset dy="11"/>
<feGaussianBlur stdDeviation="11"/>
<feColorMatrix type="matrix" values="0 0 0 0 0.397708 0 0 0 0 0.47749 0 0 0 0 0.575 0 0 0 0.27 0"/>
<feBlend mode="normal" in2="BackgroundImageFix" result="effect1_dropShadow_480_6108"/>
<feBlend mode="normal" in="SourceGraphic" in2="effect1_dropShadow_480_6108" result="shape"/>
</filter>
<linearGradient id="paint0_linear_480_6108" x1="38.1185" y1="70.0298" x2="38.1185" y2="108.419" gradientUnits="userSpaceOnUse">
<stop stop-color="#FDFEFF"/>
<stop offset="0.9964" stop-color="#ECF0F5"/>
</linearGradient>
<linearGradient id="paint1_linear_480_6108" x1="243.561" y1="95.357" x2="243.561" y2="133.831" gradientUnits="userSpaceOnUse">
<stop stop-color="#FDFEFF"/>
<stop offset="0.9964" stop-color="#ECF0F5"/>
</linearGradient>
<linearGradient id="paint2_linear_480_6108" x1="125.128" y1="118.33" x2="125.128" y2="200.86" gradientUnits="userSpaceOnUse">
<stop stop-color="#FDFEFF"/>
<stop offset="0.9964" stop-color="#ECF0F5"/>
</linearGradient>
</defs>
</svg>
